<svg version="1.1" id="Layer_1" xmlns="http://www.w3.org/2000/svg" x="0" y="0" viewBox="-1634 1132 29 35" xml:space="preserve"><style>.st0{fill:#00b2ff}</style><path class="st0" d="M-1630.8 1143.7l-1.5-1.5c-.8-.8-.8-2.1 0-2.9.8-.8 2.1-.8 2.9 0l1.6 1.6c1.7-1.1 3.5-1.9 5.5-2.3v-2h-1.4c-.4 0-.7-.3-.7-.7v-1.8c0-1.1.9-2.1 2.1-2.1h5.5c1.1 0 2.1.9 2.1 2.1v1.8c0 .4-.3.7-.7.7h-1.4v2c2 .4 3.9 1.2 5.5 2.3l1.6-1.6c.8-.8 2.1-.8 2.9 0 .8.8.8 2.1 0 2.9l-1.5 1.5c2.1 2.5 3.2 5.7 3.2 9 0 7.9-6.5 14.4-14.5 14.4s-14.5-6.4-14.5-14.4c.1-3.3 1.2-6.5 3.3-9zm.5-3.4c-.3-.3-.7-.3-1 0-.3.3-.3.7 0 1l1.4 1.4c.3-.3.7-.6 1-.9l-1.4-1.5zm14.3-6.2c0-.4-.3-.7-.7-.7h-5.5c-.4 0-.7.3-.7.7v1.1h6.9v-1.1zm-4.9 2.4v1.8c.9-.1 1.8-.1 2.8 0v-1.8h-2.8zm13.2 3.8c-.3-.3-.7-.3-1 0l-1.5 1.4c.4.3.7.6 1 .9l1.4-1.4c.4-.2.4-.7.1-.9zm-11.8 25.3c7.2 0 13.1-5.8 13.1-13 0-3.2-1.2-6.2-3.3-8.6-.6-.7-1.2-1.2-1.9-1.8-1.7-1.3-3.8-2.2-6-2.5-.6-.1-1.3-.1-2-.1s-1.3 0-2 .1c-2.2.3-4.2 1.2-6 2.5-.7.5-1.3 1.1-1.9 1.8-2.1 2.4-3.3 5.4-3.3 8.6.2 7.2 6.1 13 13.3 13z"/><path class="st0" d="M-1619.5 1154.7c-1.1 0-2.1-.9-2.1-2.1 0-.9.6-1.7 1.4-1.9v-4.9c0-.4.3-.7.7-.7.4 0 .7.3.7.7v4.9c.8.3 1.4 1 1.4 1.9 0 1.2-1 2.1-2.1 2.1zm0-2.7c-.4 0-.7.3-.7.7 0 .4.3.7.7.7.4 0 .7-.3.7-.7 0-.4-.3-.7-.7-.7z"/><path class="st0" d="M-1626.9 1145.4c.1 0 .1 0 0 0 .1 0 .1 0 0 0 1.3-1.3 2.8-2.1 4.4-2.6.4-.1.7.1.9.5.1.4-.1.7-.5.8-1.2.4-2.3 1-3.3 1.8l.5.5c.3.3.3.7 0 1-.1.1-.3.2-.5.2s-.4-.1-.5-.2l-.5-.5c-1.2 1.4-2 3.2-2.1 5.1h.7c.4 0 .7.3.7.7s-.3.7-.7.7h-.7c.1 1.9.9 3.7 2.1 5.1l.5-.5c.3-.3.7-.3 1 0 .3.3.3.7 0 1l-.5.5c1.5 1.2 3.2 2 5.1 2.1v-.7c0-.4.3-.7.7-.7s.7.3.7.7v.7c1.9-.1 3.7-.9 5.1-2.1l-.5-.5c-.3-.3-.3-.7 0-1 .3-.3.7-.3 1 0l.5.5c1.2-1.4 2-3.2 2.1-5.1h-.7c-.4 0-.7-.3-.7-.7 0-.4.3-.7.7-.7h.7c-.1-1.9-.9-3.7-2.1-5.1l-.5.5c-.1.1-.3.2-.5.2s-.4-.1-.5-.2c-.3-.3-.3-.7 0-1l.5-.5c-1-.8-2.1-1.4-3.3-1.8-.4-.1-.6-.5-.5-.8.1-.4.5-.6.9-.5 1.6.5 3.1 1.4 4.4 2.5 1.9 1.9 3 4.5 3 7.2s-1.1 5.3-3 7.2c-2 1.9-4.5 3-7.3 3-2.7 0-5.3-1.1-7.3-3-1.9-1.9-3-4.5-3-7.2 0-2.6 1.1-5.1 3-7.1z"/><path class="st0" d="M-1619.5 1143.8c-.4 0-.7-.3-.7-.7s.3-.7.7-.7c.4 0 .7.3.7.7s-.3.7-.7.7z"/></svg>