<svg version="1.1" id="Layer_1" xmlns="http://www.w3.org/2000/svg" x="0" y="0" viewBox="-1630 1132 38 38" xml:space="preserve"><style>.st0{fill:#00b2ff}</style><path class="st0" d="M-1606.6 1142.1c.8 0 1.5.5 1.8 1.3h6.6c.3-.7 1-1.3 1.8-1.3 1 0 1.9.9 1.9 1.9 0 1-.9 1.9-1.9 1.9-.8 0-1.5-.5-1.8-1.3h-6.6c-.3.7-1 1.3-1.8 1.3-1 0-1.9-.9-1.9-1.9 0-1 .9-1.9 1.9-1.9zm10.2 2.6c.3 0 .6-.3.6-.6s-.3-.6-.6-.6-.6.3-.6.6c-.1.3.2.6.6.6zm-10.2 0c.3 0 .6-.3.6-.6s-.3-.6-.6-.6-.6.3-.6.6.3.6.6.6z"/><path class="st0" d="M-1611.6 1146v-3.9c0-.2.1-.3.2-.4l2.5-2.5c.1-.1.3-.2.4-.2h2c.3-.7 1-1.3 1.8-1.3 1 0 1.9.9 1.9 1.9 0 1-.9 1.9-1.9 1.9-.8 0-1.5-.5-1.8-1.3h-1.8l-2.2 2.2v3.7c.7.3 1.3 1 1.3 1.8 0 1-.9 1.9-1.9 1.9-1 0-1.9-.9-1.9-1.9.1-.9.6-1.6 1.4-1.9zm6.9-5.8c.3 0 .6-.3.6-.6s-.3-.6-.6-.6-.6.3-.6.6.3.6.6.6zm-6.3 8.3c.3 0 .6-.3.6-.6s-.3-.6-.6-.6-.6.3-.6.6.3.6.6.6zm-12 0c.3 0 .6.1.8.2l1.1-1.1v-6.1c0-.2.1-.3.2-.4l6.3-6.3c-.1-.2-.2-.5-.2-.8 0-1 .9-1.9 1.9-1.9s1.9.9 1.9 1.9c0 1-.9 1.9-1.9 1.9-.3 0-.6-.1-.8-.2l-6.2 6.2v6.1c0 .2-.1.3-.2.4l-1.3 1.3c.1.2.2.5.2.8 0 1-.9 1.9-1.9 1.9s-1.9-.9-1.9-1.9c.1-1.2.9-2 2-2zm10.1-14c.3 0 .6-.3.6-.6s-.3-.6-.6-.6-.6.3-.6.6.3.6.6.6zm-10.1 16.5c.3 0 .6-.3.6-.6s-.3-.6-.6-.6-.6.3-.6.6c-.1.3.2.6.6.6zm-5.7-10v-2.6c0-.2.1-.3.2-.4l4.4-4.4c.1-.1.3-.2.4-.2h3.3c.3-.7 1-1.3 1.8-1.3 1 0 1.9.9 1.9 1.9 0 1-.9 1.9-1.9 1.9-.8 0-1.5-.5-1.8-1.3h-3l-4.1 4.1v2.4c.7.3 1.3 1 1.3 1.8 0 1-.9 1.9-1.9 1.9-1 0-1.9-.9-1.9-1.9 0-1 .5-1.7 1.3-1.9zm10.1-6.5c.3 0 .6-.3.6-.6s-.3-.6-.6-.6-.6.3-.6.6.3.6.6.6zm-9.5 8.9c.3 0 .6-.3.6-.6s-.3-.6-.6-.6-.6.3-.6.6.3.6.6.6zm8.2 22.9v-9.1c-.7-.3-1.3-1-1.3-1.8 0-1 .9-1.9 1.9-1.9.8 0 1.5.5 1.8 1.3h6.6c.3-.7 1-1.3 1.8-1.3s1.5.5 1.8 1.3h3.7l2.4-2.4c-.1-.2-.2-.5-.2-.8 0-1 .9-1.9 1.9-1.9s1.9.9 1.9 1.9c0 1-.9 1.9-1.9 1.9-.3 0-.6-.1-.8-.2l-2.5 2.5c-.1.1-.3.2-.4.2h-3.9c-.3.7-1 1.3-1.8 1.3s-1.5-.5-1.8-1.3h-6.6c-.2.5-.6 1-1.2 1.2v9.1c.7.3 1.3 1 1.3 1.8 0 1-.9 1.9-1.9 1.9-1 0-1.9-.9-1.9-1.9-.1-.8.4-1.5 1.1-1.8zm20.3-14c.3 0 .6-.3.6-.6s-.3-.6-.6-.6-.6.3-.6.6.3.6.6.6zm-9.5 3.8c.3 0 .6-.3.6-.6s-.3-.6-.6-.6-.6.3-.6.6.3.6.6.6zm-10.1 12.6c.3 0 .6-.3.6-.6s-.3-.6-.6-.6-.6.3-.6.6.2.6.6.6zm0-12.6c.3 0 .6-.3.6-.6s-.3-.6-.6-.6-.6.3-.6.6.2.6.6.6z"/><path class="st0" d="M-1616.7 1144.8v-2c0-.2.1-.3.2-.4l7.6-7.6c-.1-.2-.2-.5-.2-.8 0-1 .9-1.9 1.9-1.9.8 0 1.5.5 1.8 1.3h2.6c.3 0 .6.3.6.6v1.6l2.4 2.4c.2-.1.5-.2.8-.2 1 0 1.9.9 1.9 1.9s-.9 1.9-1.9 1.9-1.9-.9-1.9-1.9c0-.3.1-.6.2-.8l-2.5-2.5c-.1-.1-.2-.3-.2-.4v-1.3h-2c-.3.7-1 1.3-1.8 1.3-.3 0-.6-.1-.8-.2l-7.4 7.4v1.8c.7.3 1.3 1 1.3 1.8 0 1-.9 1.9-1.9 1.9s-1.9-.9-1.9-1.9c-.1-1.1.5-1.8 1.2-2zm17.7-4.6c.3 0 .6-.3.6-.6s-.3-.6-.6-.6-.6.3-.6.6.3.6.6.6zm-8.2-5.7c.3 0 .6-.3.6-.6s-.3-.6-.6-.6-.6.3-.6.6.3.6.6.6zm-8.9 12.7c.3 0 .6-.3.6-.6s-.3-.6-.6-.6-.6.3-.6.6.3.6.6.6z"/><path class="st0" d="M-1614.8 1149.7c.8 0 1.5.5 1.8 1.3h7.5l3.6-3.6c.1-.1.3-.2.4-.2h6.7l1.5-1.5v-5.2l-4.9-4.9c-.2.1-.5.2-.8.2-1 0-1.9-.9-1.9-1.9 0-1 .9-1.9 1.9-1.9 1 0 1.9.9 1.9 1.9 0 .3-.1.6-.2.8l5.1 5.1c.1.1.2.3.2.4v5.7c0 .2-.1.3-.2.4l-1.9 1.9c-.1.1-.3.2-.4.2h-6.7l-3.6 3.6c-.1.1-.3.2-.4.2h-7.7c-.3.7-1 1.3-1.8 1.3-1 0-1.9-.9-1.9-1.9-.1-1 .8-1.9 1.8-1.9zm15.8-16.4c-.3 0-.6.3-.6.6s.3.6.6.6.6-.3.6-.6c.1-.3-.2-.6-.6-.6zm-15.8 19c.3 0 .6-.3.6-.6s-.3-.6-.6-.6-.6.3-.6.6.3.6.6.6zm-13.3-5.1c.3 0 .6.1.8.2l2.4-2.4v-3.7c-.7-.3-1.3-1-1.3-1.8 0-1 .9-1.9 1.9-1.9 1 0 1.9.9 1.9 1.9 0 .8-.5 1.5-1.3 1.8v3.9c0 .2-.1.3-.2.4l-2.5 2.5c.1.2.2.5.2.8 0 .8-.5 1.5-1.3 1.8v.5l4.9 4.9c.1.1.2.3.2.4v.7c.7.3 1.3 1 1.3 1.8s-.5 1.5-1.3 1.8v1.5c.7.3 1.3 1 1.3 1.8 0 1-.9 1.9-1.9 1.9-1 0-1.9-.9-1.9-1.9 0-.8.5-1.5 1.3-1.8v-1.5c-.7-.3-1.3-1-1.3-1.8s.5-1.5 1.3-1.8v-.5l-4.9-4.9c-.1-.1-.2-.3-.2-.4v-.7c-.7-.3-1.3-1-1.3-1.8s.9-1.7 1.9-1.7zm3.8-7c.3 0 .6-.3.6-.6s-.3-.6-.6-.6-.6.3-.6.6.3.6.6.6zm1.3 24.7c.3 0 .6-.3.6-.6s-.3-.6-.6-.6-.6.3-.6.6c-.1.3.2.6.6.6zm0-5c.3 0 .6-.3.6-.6s-.3-.6-.6-.6-.6.3-.6.6.2.6.6.6zm-5.1-10.2c.3 0 .6-.3.6-.6s-.3-.6-.6-.6-.6.3-.6.6.3.6.6.6z"/></svg>