<svg version="1.1" id="Layer_1" xmlns="http://www.w3.org/2000/svg" x="0" y="0" viewBox="-1548 1125 201 52" xml:space="preserve"><style>.st2{fill:#00b2ff}</style><path d="M-1471.1 1149.3c0-.7-.2-1.3-.6-1.6-.4-.4-1-.8-2-1.2-1.8-.7-3.1-1.5-3.8-2.4-.8-.9-1.2-2-1.2-3.2 0-1.5.5-2.7 1.6-3.6 1.1-.9 2.4-1.4 4.1-1.4 1.1 0 2.1.2 2.9.7.9.5 1.5 1.1 2 1.9.5.8.7 1.8.7 2.9h-3.6c0-.8-.2-1.5-.5-1.9-.3-.4-.9-.7-1.5-.7s-1.1.2-1.5.6c-.3.4-.5.9-.5 1.5 0 .5.2.9.6 1.3.4.4 1.1.8 2.1 1.2 1.7.6 3 1.4 3.8 2.3.8.9 1.2 2.1 1.2 3.5 0 1.5-.5 2.8-1.5 3.6-1 .9-2.3 1.3-4 1.3-1.1 0-2.2-.2-3.1-.7-.9-.5-1.7-1.1-2.2-2-.5-.9-.8-1.9-.8-3.1h3.6c0 1 .2 1.8.6 2.2.4.5 1 .7 2 .7 1 .1 1.6-.5 1.6-1.9zm9.1-8.5l.1 1.2c.8-1 1.8-1.5 3.1-1.5s2.3.6 2.8 1.8c.8-1.2 1.8-1.8 3.2-1.8 2.3 0 3.5 1.6 3.6 4.8v8.7h-3.5v-8.4c0-.8-.1-1.3-.3-1.6s-.6-.5-1.1-.5c-.6 0-1.1.4-1.4 1.2v9.4h-3.5v-8.4c0-.8-.1-1.3-.3-1.6-.2-.3-.6-.5-1.1-.5-.6 0-1.1.3-1.4 1v9.6h-3.5V1141h3.3zm21.6 13.2c-.1-.2-.2-.5-.3-1-.6.8-1.5 1.3-2.5 1.3-1.1 0-2-.4-2.8-1.1-.7-.7-1.1-1.7-1.1-2.8 0-1.4.4-2.5 1.3-3.2.9-.8 2.2-1.1 3.8-1.2h1.1v-1.1c0-.6-.1-1-.3-1.3-.2-.2-.5-.4-.9-.4-.9 0-1.3.5-1.3 1.5h-3.5c0-1.2.5-2.2 1.4-3 .9-.8 2.1-1.2 3.5-1.2s2.6.4 3.4 1.1c.8.7 1.2 1.8 1.2 3.2v6.2c0 1.1.2 2 .5 2.7v.2h-3.5zm-2.1-2.5c.4 0 .7-.1 1-.2.3-.2.5-.3.6-.5v-2.7h-.8c-.6 0-1 .2-1.4.6-.3.4-.5.9-.5 1.5 0 .8.4 1.3 1.1 1.3zm14.1-7.4l-1.1-.1c-.9 0-1.6.4-1.9 1.2v8.7h-3.5v-13.2h3.3l.1 1.4c.5-1.1 1.3-1.7 2.3-1.7.4 0 .7.1 1 .2l-.2 3.5zm6.4-6.6v3.2h1.8v2.6h-1.8v6.6c0 .5.1.9.2 1.1.1.2.4.3.8.3.3 0 .6 0 .8-.1v2.7c-.6.2-1.2.3-1.9.3-2.2 0-3.4-1.3-3.4-3.8v-7h-1.5v-2.6h1.5v-3.2h3.5zm9.6 16.5v-17.8h4.7c2.1 0 3.7.7 5 2 1.2 1.3 1.9 3.1 1.9 5.4v2.9c0 2.3-.6 4.2-1.9 5.5-1.2 1.3-2.9 2-5.1 2h-4.6zm3.6-14.8v11.8h1.1c1.2 0 2-.3 2.5-.9.5-.6.7-1.7.8-3.3v-3.1c0-1.7-.2-2.8-.7-3.5-.5-.7-1.3-1-2.4-1h-1.3zm15.7 15c-1.8 0-3.2-.5-4.2-1.6s-1.5-2.6-1.5-4.5v-1c0-2.1.5-3.7 1.4-4.8.9-1.1 2.2-1.7 3.9-1.7 1.7 0 2.9.5 3.7 1.6.8 1.1 1.3 2.6 1.3 4.7v1.7h-6.9c0 1 .3 1.7.6 2.1.4.4 1 .7 1.8.7 1.2 0 2.1-.4 2.9-1.2l1.4 2.1c-.4.6-1 1.1-1.8 1.4-.8.4-1.6.5-2.6.5zm-2.2-8.1h3.5v-.3c0-.8-.1-1.4-.4-1.8-.2-.4-.7-.6-1.3-.6-.6 0-1 .2-1.3.6-.3.5-.4 1.2-.5 2.1zm13 3l1.7-8.3h3.6l-3.6 13.2h-3.3l-3.6-13.2h3.6l1.6 8.3zm10.5 4.9h-3.5v-13.2h3.5v13.2zm-3.6-16.6c0-.5.2-1 .5-1.3s.8-.5 1.4-.5c.6 0 1 .2 1.4.5s.5.8.5 1.3-.2 1-.5 1.3c-.3.3-.8.5-1.4.5-.6 0-1-.2-1.4-.5-.3-.4-.5-.8-.5-1.3zm11.1 14c1 0 1.5-.7 1.5-2h3.2c0 1.4-.5 2.6-1.3 3.5-.9.9-2 1.3-3.4 1.3-1.7 0-3-.5-3.9-1.6s-1.4-2.6-1.4-4.7v-1c0-2.1.4-3.7 1.3-4.7.9-1.1 2.2-1.6 3.9-1.6 1.5 0 2.6.5 3.4 1.4.8.9 1.3 2.2 1.3 3.8h-3.2c0-.7-.1-1.3-.4-1.7s-.6-.6-1.2-.6-1 .2-1.3.6c-.3.4-.4 1.2-.4 2.5v1.3c0 1.1.1 1.8.2 2.3.1.4.3.7.5.9.4.2.7.3 1.2.3zm12 2.8c-1.8 0-3.2-.5-4.2-1.6s-1.5-2.6-1.5-4.5v-1c0-2.1.5-3.7 1.4-4.8.9-1.1 2.2-1.7 3.9-1.7 1.7 0 2.9.5 3.7 1.6.8 1.1 1.3 2.6 1.3 4.7v1.7h-6.9c0 1 .3 1.7.6 2.1.4.4 1 .7 1.8.7 1.2 0 2.1-.4 2.9-1.2l1.4 2.1c-.4.6-1 1.1-1.8 1.4-.7.4-1.6.5-2.6.5zm-2.1-8.1h3.5v-.3c0-.8-.1-1.4-.4-1.8-.2-.4-.7-.6-1.3-.6-.6 0-1 .2-1.3.6-.3.5-.5 1.2-.5 2.1z" fill="#fff"/><path d="M-1477.1 1170l1.3-4.3h1.5l-2.5 7.3c-.4 1.1-1 1.6-2 1.6-.2 0-.4 0-.7-.1v-1.1h.3c.4 0 .6-.1.8-.2.2-.1.3-.3.4-.7l.2-.5-2.2-6.3h1.5l1.4 4.3zm7.4.2l1.9-4.6h1.8v6.3h-1.4v-4.2l-1.7 4.2h-1l-1.8-4.2v4.2h-1.4v-6.3h1.8l1.8 4.6zm10.7 1.8h-1.4v-2.6h-2.5v2.6h-1.4v-6.3h1.4v2.6h2.5v-2.6h1.4v6.3zm3-4.3h1.4c.5 0 1 .1 1.4.3s.7.4.9.8c.2.3.3.7.3 1.1 0 .7-.2 1.2-.7 1.6s-1.1.6-1.8.6h-2.8v-6.3h1.4v1.9zm6.4 4.3h-1.4v-6.3h1.4v6.3zm-6.4-3.2v2h1.4c.3 0 .6-.1.8-.3.2-.2.3-.4.3-.7s-.1-.6-.3-.8c-.2-.2-.5-.3-.8-.3h-1.4zm10.9 3.3c-.9 0-1.6-.3-2.2-.8-.6-.6-.8-1.3-.8-2.3v-.2c0-.6.1-1.2.4-1.7.2-.5.6-.9 1-1.2.4-.3.9-.4 1.5-.4.9 0 1.5.3 2 .8.5.6.7 1.3.7 2.3v.6h-4.1c0 .5.2.9.5 1.2.3.3.7.5 1.2.5.7 0 1.2-.3 1.6-.8l.8.7c-.3.4-.6.7-1 .9-.6.3-1 .4-1.6.4zm-.1-5.4c-.4 0-.7.1-1 .4-.2.3-.4.7-.5 1.1h2.7v-.1c0-.5-.2-.8-.4-1.1-.1-.2-.4-.3-.8-.3zm11.8.1h-2.1v5.2h-1.4v-5.2h-2v-1.1h5.5v1.1zm3.3 5.3c-.9 0-1.6-.3-2.2-.8-.6-.6-.8-1.3-.8-2.3v-.2c0-.6.1-1.2.4-1.7.2-.5.6-.9 1-1.2.4-.3.9-.4 1.5-.4.9 0 1.5.3 2 .8.5.6.7 1.3.7 2.3v.6h-4.1c0 .5.2.9.5 1.2.3.3.7.5 1.2.5.7 0 1.2-.3 1.6-.8l.8.7c-.3.4-.6.7-1 .9-.6.3-1 .4-1.6.4zm-.1-5.4c-.4 0-.7.1-1 .4-.2.3-.4.7-.5 1.1h2.7v-.1c0-.5-.2-.8-.4-1.1-.1-.2-.4-.3-.8-.3zm6.1 1l1.2-2.1h1.6l-1.9 3.1 2 3.2h-1.6l-1.3-2.2-1.3 2.2h-1.6l2-3.2-1.9-3.1h1.6l1.2 2.1zm9.1 4.3h-1.4v-2.6h-2.5v2.6h-1.4v-6.3h1.4v2.6h2.5v-2.6h1.4v6.3zm1.3-3.2c0-.6.1-1.2.4-1.7.2-.5.6-.9 1-1.1.4-.3 1-.4 1.5-.4.9 0 1.5.3 2.1.8.5.6.8 1.3.9 2.2v.3c0 .6-.1 1.2-.4 1.7-.2.5-.6.9-1 1.1-.4.3-1 .4-1.5.4-.9 0-1.6-.3-2.2-.9-.6-.6-.8-1.4-.8-2.4zm1.4.1c0 .7.1 1.2.4 1.5.3.4.6.6 1.1.6.5 0 .9-.2 1.1-.6.3-.4.4-.9.4-1.6 0-.6-.1-1.1-.4-1.5-.3-.4-.6-.6-1.1-.6-.5 0-.8.2-1.1.6-.3.3-.4.9-.4 1.6zm10.9-3.2v6.3h-1.4v-5.2h-1.8l-.1 2.2c-.1 1.1-.3 1.8-.6 2.3-.3.5-.8.7-1.5.7h-.4v-1.2h.3c.3 0 .5-.2.7-.6.1-.3.2-1 .3-1.9l.1-2.7h4.4zm1.3 3.1c0-.6.1-1.2.4-1.7.2-.5.6-.9 1-1.1.4-.3 1-.4 1.5-.4.9 0 1.5.3 2.1.8.5.6.8 1.3.9 2.2v.3c0 .6-.1 1.2-.4 1.7-.2.5-.6.9-1 1.1-.4.3-1 .4-1.5.4-.9 0-1.6-.3-2.2-.9-.5-.6-.8-1.4-.8-2.4zm1.4.1c0 .7.1 1.2.4 1.5.3.4.6.6 1.1.6.5 0 .9-.2 1.1-.6.3-.4.4-.9.4-1.6 0-.6-.1-1.1-.4-1.5-.3-.4-.6-.6-1.1-.6-.5 0-.8.2-1.1.6-.2.3-.4.9-.4 1.6zm9.9-2.1h-2.8v5.2h-1.4v-6.3h4.2v1.1zm4.8-1.1h1.4v6.3h-1.4v-4.2l-2.5 4.2h-1.4v-6.3h1.4v4.2l2.5-4.2zm6.9 0h1.4v6.3h-1.4v-4.2l-2.5 4.2h-1.4v-6.3h1.4v4.2l2.5-4.2z" fill="#788891"/><path class="st2" d="M-1515.9 1138.9c1.1 0 2.1.7 2.4 1.7h9c.4-1 1.3-1.7 2.4-1.7 1.4 0 2.6 1.2 2.6 2.6s-1.2 2.6-2.6 2.6c-1.1 0-2.1-.7-2.4-1.7h-9c-.4 1-1.3 1.7-2.4 1.7-1.4 0-2.6-1.2-2.6-2.6s1.1-2.6 2.6-2.6zm13.8 3.4c.5 0 .9-.4.9-.9s-.4-.9-.9-.9-.9.4-.9.9.5.9.9.9zm-13.8 0c.5 0 .9-.4.9-.9s-.4-.9-.9-.9-.9.4-.9.9.4.9.9.9z"/><path class="st2" d="M-1522.9 1144.2v-5.4c0-.2.1-.5.3-.6l3.5-3.5c.2-.2.4-.3.6-.3h2.8c.4-1 1.3-1.7 2.4-1.7 1.4 0 2.6 1.2 2.6 2.6 0 1.4-1.2 2.6-2.6 2.6-1.1 0-2.1-.7-2.4-1.7h-2.4l-3 3v5c1 .4 1.7 1.3 1.7 2.4 0 1.4-1.2 2.6-2.6 2.6-1.4 0-2.6-1.2-2.6-2.6 0-1.1.7-2 1.7-2.4zm9.6-7.9c.5 0 .9-.4.9-.9s-.4-.9-.9-.9-.9.4-.9.9.4.9.9.9zm-8.7 11.2c.5 0 .9-.4.9-.9s-.4-.9-.9-.9-.9.4-.9.9.4.9.9.9zm-16.5 0c.4 0 .8.1 1.1.3l1.5-1.5v-8.3c0-.2.1-.5.3-.6l8.7-8.7c-.2-.3-.3-.7-.3-1.1 0-1.4 1.2-2.6 2.6-2.6s2.6 1.2 2.6 2.6-1.2 2.6-2.6 2.6c-.4 0-.8-.1-1.1-.3l-8.4 8.4v8.3c0 .2-.1.5-.3.6l-1.7 1.7c.2.3.3.7.3 1.1 0 1.4-1.2 2.6-2.6 2.6s-2.6-1.2-2.6-2.6 1.1-2.5 2.5-2.5zm13.9-19c.5 0 .9-.4.9-.9s-.4-.9-.9-.9-.9.4-.9.9.4.9.9.9zm-13.9 22.5c.5 0 .9-.4.9-.9s-.4-.9-.9-.9-.9.4-.9.9.5.9.9.9zm-7.8-13.7v-3.6c0-.2.1-.5.3-.6l6.1-6.1c.2-.2.4-.3.6-.3h4.5c.4-1 1.3-1.7 2.4-1.7 1.4 0 2.6 1.2 2.6 2.6s-1.2 2.6-2.6 2.6c-1.1 0-2.1-.7-2.4-1.7h-4.1l-5.6 5.6v3.3c1 .4 1.7 1.3 1.7 2.4 0 1.4-1.2 2.6-2.6 2.6s-2.6-1.2-2.6-2.6c0-1.2.7-2.1 1.7-2.5zm13.9-8.8c.5 0 .9-.4.9-.9s-.4-.9-.9-.9-.9.4-.9.9.4.9.9.9zm-13 12.1c.5 0 .9-.4.9-.9s-.4-.9-.9-.9-.9.4-.9.9.4.9.9.9zm11.3 31.4v-12.5c-1-.4-1.7-1.3-1.7-2.4 0-1.4 1.2-2.6 2.6-2.6 1.1 0 2.1.7 2.4 1.7h9c.4-1 1.3-1.7 2.4-1.7s2.1.7 2.4 1.7h5l3.2-3.2c-.2-.3-.3-.7-.3-1.1 0-1.4 1.2-2.6 2.6-2.6s2.6 1.2 2.6 2.6c0 1.4-1.2 2.6-2.6 2.6-.4 0-.8-.1-1.1-.3l-3.5 3.5c-.2.2-.4.3-.6.3h-5.4c-.4 1-1.3 1.7-2.4 1.7s-2.1-.7-2.4-1.7h-9c-.3.7-.8 1.3-1.6 1.6v12.5c1 .4 1.7 1.3 1.7 2.4 0 1.4-1.2 2.6-2.6 2.6s-2.6-1.2-2.6-2.6c.1-1.2.9-2.2 1.9-2.5zm27.7-19.3c.5 0 .9-.4.9-.9s-.4-.9-.9-.9-.9.4-.9.9.4.9.9.9zm-13 5.2c.5 0 .9-.4.9-.9s-.4-.9-.9-.9-.9.4-.9.9.4.9.9.9zm-13.9 17.4c.5 0 .9-.4.9-.9s-.4-.9-.9-.9-.9.4-.9.9c.1.5.5.9.9.9zm0-17.4c.5 0 .9-.4.9-.9s-.4-.9-.9-.9-.9.4-.9.9c.1.5.5.9.9.9z"/><path class="st2" d="M-1529.8 1142.5v-2.8c0-.2.1-.5.3-.6l10.4-10.4c-.2-.3-.3-.7-.3-1.1 0-1.4 1.2-2.6 2.6-2.6 1.1 0 2.1.7 2.4 1.7h3.6c.5 0 .9.4.9.9v2.2l3.2 3.2c.3-.2.7-.3 1.1-.3 1.4 0 2.6 1.2 2.6 2.6 0 1.4-1.2 2.6-2.6 2.6s-2.6-1.2-2.6-2.6c0-.4.1-.8.3-1.1l-3.5-3.5c-.2-.2-.3-.4-.3-.6v-1.7h-2.8c-.4 1-1.3 1.7-2.4 1.7-.4 0-.8-.1-1.1-.3l-10.2 10.2v2.4c1 .4 1.7 1.3 1.7 2.4 0 1.4-1.2 2.6-2.6 2.6s-2.6-1.2-2.6-2.6c.2-1 .9-1.9 1.9-2.3zm24.3-6.2c.5 0 .9-.4.9-.9s-.4-.9-.9-.9-.9.4-.9.9.4.9.9.9zm-11.3-7.8c.5 0 .9-.4.9-.9s-.4-.9-.9-.9-.9.4-.9.9.4.9.9.9zm-12.1 17.3c.5 0 .9-.4.9-.9s-.4-.9-.9-.9-.9.4-.9.9.4.9.9.9z"/><path class="st2" d="M-1527.2 1149.3c1.1 0 2.1.7 2.4 1.7h10.2l4.9-4.9c.2-.2.4-.3.6-.3h9.2l2.1-2.1v-7.1l-6.7-6.7c-.3.2-.7.3-1.1.3-1.4 0-2.6-1.2-2.6-2.6s1.2-2.6 2.6-2.6 2.6 1.2 2.6 2.6c0 .4-.1.8-.3 1.1l6.9 6.9c.2.2.3.4.3.6v7.8c0 .2-.1.5-.3.6l-2.6 2.6c-.2.2-.4.3-.6.3h-9.2l-4.9 4.9c-.2.2-.4.3-.6.3h-10.6c-.4 1-1.3 1.7-2.4 1.7-1.4 0-2.6-1.2-2.6-2.6.1-1.4 1.3-2.5 2.7-2.5zm21.7-22.6c-.5 0-.9.4-.9.9s.4.9.9.9.9-.4.9-.9-.5-.9-.9-.9zm-21.7 26c.5 0 .9-.4.9-.9s-.4-.9-.9-.9-.9.4-.9.9.4.9.9.9zm-18.2-6.9c.4 0 .8.1 1.1.3l3.2-3.2v-5c-1-.4-1.7-1.3-1.7-2.4 0-1.4 1.2-2.6 2.6-2.6s2.6 1.2 2.6 2.6c0 1.1-.7 2.1-1.7 2.4v5.4c0 .2-.1.5-.3.6l-3.5 3.5c.2.3.3.7.3 1.1 0 1.1-.7 2.1-1.7 2.4v.7l6.7 6.7c.2.2.3.4.3.6v1c1 .4 1.7 1.3 1.7 2.4s-.7 2.1-1.7 2.4v2.1c1 .4 1.7 1.3 1.7 2.4 0 1.4-1.2 2.6-2.6 2.6s-2.6-1.2-2.6-2.6c0-1.1.7-2.1 1.7-2.4v-2.1c-1-.4-1.7-1.3-1.7-2.4s.7-2.1 1.7-2.4v-.7l-6.7-6.7c-.2-.2-.3-.4-.3-.6v-1c-1-.4-1.7-1.3-1.7-2.4 0-1.5 1.2-2.7 2.6-2.7zm5.2-9.5c.5 0 .9-.4.9-.9s-.4-.9-.9-.9-.9.4-.9.9.4.9.9.9zm1.7 33.8c.5 0 .9-.4.9-.9s-.4-.9-.9-.9-.9.4-.9.9.5.9.9.9zm0-7c.5 0 .9-.4.9-.9s-.4-.9-.9-.9-.9.4-.9.9.5.9.9.9zm-6.9-13.8c.5 0 .9-.4.9-.9s-.4-.9-.9-.9-.9.4-.9.9.4.9.9.9z"/></svg>