<?xml version="1.0" encoding="utf-8"?>
<!-- Generator: Adobe Illustrator 19.1.1, SVG Export Plug-In . SVG Version: 6.00 Build 0)  -->
<svg version="1.1" id="Layer_1" xmlns="http://www.w3.org/2000/svg" xmlns:xlink="http://www.w3.org/1999/xlink" x="0px" y="0px"
	 viewBox="-1630 1132 38 38" style="enable-background:new -1630 1132 38 38;" xml:space="preserve">
<style type="text/css">
	.st0{fill:#00B2FF;}
</style>
<g>
	<path class="st0" d="M-1606.6,1142.1c0.8,0,1.5,0.5,1.8,1.3h6.6c0.3-0.7,1-1.3,1.8-1.3c1,0,1.9,0.9,1.9,1.9s-0.9,1.9-1.9,1.9
		c-0.8,0-1.5-0.5-1.8-1.3h-6.6c-0.3,0.7-1,1.3-1.8,1.3c-1,0-1.9-0.9-1.9-1.9S-1607.6,1142.1-1606.6,1142.1z M-1596.4,1144.7
		c0.3,0,0.6-0.3,0.6-0.6s-0.3-0.6-0.6-0.6s-0.6,0.3-0.6,0.6C-1597.1,1144.4-1596.8,1144.7-1596.4,1144.7z M-1606.6,1144.7
		c0.3,0,0.6-0.3,0.6-0.6s-0.3-0.6-0.6-0.6s-0.6,0.3-0.6,0.6S-1606.9,1144.7-1606.6,1144.7z"/>
	<path class="st0" d="M-1611.6,1146v-3.9c0-0.2,0.1-0.3,0.2-0.4l2.5-2.5c0.1-0.1,0.3-0.2,0.4-0.2h2c0.3-0.7,1-1.3,1.8-1.3
		c1,0,1.9,0.9,1.9,1.9s-0.9,1.9-1.9,1.9c-0.8,0-1.5-0.5-1.8-1.3h-1.8l-2.2,2.2v3.7c0.7,0.3,1.3,1,1.3,1.8c0,1-0.9,1.9-1.9,1.9
		s-1.9-0.9-1.9-1.9C-1612.9,1147-1612.4,1146.3-1611.6,1146L-1611.6,1146z M-1604.7,1140.2c0.3,0,0.6-0.3,0.6-0.6s-0.3-0.6-0.6-0.6
		s-0.6,0.3-0.6,0.6S-1605,1140.2-1604.7,1140.2z M-1611,1148.5c0.3,0,0.6-0.3,0.6-0.6s-0.3-0.6-0.6-0.6s-0.6,0.3-0.6,0.6
		S-1611.3,1148.5-1611,1148.5z M-1623,1148.5c0.3,0,0.6,0.1,0.8,0.2l1.1-1.1v-6.1c0-0.2,0.1-0.3,0.2-0.4l6.3-6.3
		c-0.1-0.2-0.2-0.5-0.2-0.8c0-1,0.9-1.9,1.9-1.9s1.9,0.9,1.9,1.9s-0.9,1.9-1.9,1.9c-0.3,0-0.6-0.1-0.8-0.2l-6.2,6.2v6.1
		c0,0.2-0.1,0.3-0.2,0.4l-1.3,1.3c0.1,0.2,0.2,0.5,0.2,0.8c0,1-0.9,1.9-1.9,1.9s-1.9-0.9-1.9-1.9
		C-1624.9,1149.3-1624.1,1148.5-1623,1148.5z M-1612.9,1134.5c0.3,0,0.6-0.3,0.6-0.6s-0.3-0.6-0.6-0.6s-0.6,0.3-0.6,0.6
		S-1613.2,1134.5-1612.9,1134.5z M-1623,1151c0.3,0,0.6-0.3,0.6-0.6s-0.3-0.6-0.6-0.6s-0.6,0.3-0.6,0.6
		C-1623.7,1150.7-1623.4,1151-1623,1151z M-1628.7,1141v-2.6c0-0.2,0.1-0.3,0.2-0.4l4.4-4.4c0.1-0.1,0.3-0.2,0.4-0.2h3.3
		c0.3-0.7,1-1.3,1.8-1.3c1,0,1.9,0.9,1.9,1.9s-0.9,1.9-1.9,1.9c-0.8,0-1.5-0.5-1.8-1.3h-3l-4.1,4.1v2.4c0.7,0.3,1.3,1,1.3,1.8
		c0,1-0.9,1.9-1.9,1.9s-1.9-0.9-1.9-1.9S-1629.5,1141.2-1628.7,1141L-1628.7,1141z M-1618.6,1134.5c0.3,0,0.6-0.3,0.6-0.6
		s-0.3-0.6-0.6-0.6s-0.6,0.3-0.6,0.6S-1618.9,1134.5-1618.6,1134.5z M-1628.1,1143.4c0.3,0,0.6-0.3,0.6-0.6s-0.3-0.6-0.6-0.6
		s-0.6,0.3-0.6,0.6S-1628.4,1143.4-1628.1,1143.4z M-1619.9,1166.3v-9.1c-0.7-0.3-1.3-1-1.3-1.8c0-1,0.9-1.9,1.9-1.9
		c0.8,0,1.5,0.5,1.8,1.3h6.6c0.3-0.7,1-1.3,1.8-1.3s1.5,0.5,1.8,1.3h3.7l2.4-2.4c-0.1-0.2-0.2-0.5-0.2-0.8c0-1,0.9-1.9,1.9-1.9
		s1.9,0.9,1.9,1.9s-0.9,1.9-1.9,1.9c-0.3,0-0.6-0.1-0.8-0.2l-2.5,2.5c-0.1,0.1-0.3,0.2-0.4,0.2h-3.9c-0.3,0.7-1,1.3-1.8,1.3
		s-1.5-0.5-1.8-1.3h-6.6c-0.2,0.5-0.6,1-1.2,1.2v9.1c0.7,0.3,1.3,1,1.3,1.8c0,1-0.9,1.9-1.9,1.9s-1.9-0.9-1.9-1.9
		C-1621.1,1167.3-1620.6,1166.6-1619.9,1166.3L-1619.9,1166.3z M-1599.6,1152.3c0.3,0,0.6-0.3,0.6-0.6s-0.3-0.6-0.6-0.6
		s-0.6,0.3-0.6,0.6S-1599.9,1152.3-1599.6,1152.3z M-1609.1,1156.1c0.3,0,0.6-0.3,0.6-0.6s-0.3-0.6-0.6-0.6s-0.6,0.3-0.6,0.6
		S-1609.4,1156.1-1609.1,1156.1z M-1619.2,1168.7c0.3,0,0.6-0.3,0.6-0.6s-0.3-0.6-0.6-0.6s-0.6,0.3-0.6,0.6
		S-1619.6,1168.7-1619.2,1168.7z M-1619.2,1156.1c0.3,0,0.6-0.3,0.6-0.6s-0.3-0.6-0.6-0.6s-0.6,0.3-0.6,0.6
		S-1619.6,1156.1-1619.2,1156.1z"/>
	<path class="st0" d="M-1616.7,1144.8v-2c0-0.2,0.1-0.3,0.2-0.4l7.6-7.6c-0.1-0.2-0.2-0.5-0.2-0.8c0-1,0.9-1.9,1.9-1.9
		c0.8,0,1.5,0.5,1.8,1.3h2.6c0.3,0,0.6,0.3,0.6,0.6v1.6l2.4,2.4c0.2-0.1,0.5-0.2,0.8-0.2c1,0,1.9,0.9,1.9,1.9s-0.9,1.9-1.9,1.9
		s-1.9-0.9-1.9-1.9c0-0.3,0.1-0.6,0.2-0.8l-2.5-2.5c-0.1-0.1-0.2-0.3-0.2-0.4v-1.3h-2c-0.3,0.7-1,1.3-1.8,1.3
		c-0.3,0-0.6-0.1-0.8-0.2l-7.4,7.4v1.8c0.7,0.3,1.3,1,1.3,1.8c0,1-0.9,1.9-1.9,1.9s-1.9-0.9-1.9-1.9
		C-1618,1145.7-1617.4,1145-1616.7,1144.8L-1616.7,1144.8z M-1599,1140.2c0.3,0,0.6-0.3,0.6-0.6s-0.3-0.6-0.6-0.6s-0.6,0.3-0.6,0.6
		S-1599.3,1140.2-1599,1140.2z M-1607.2,1134.5c0.3,0,0.6-0.3,0.6-0.6s-0.3-0.6-0.6-0.6s-0.6,0.3-0.6,0.6
		S-1607.5,1134.5-1607.2,1134.5z M-1616.1,1147.2c0.3,0,0.6-0.3,0.6-0.6s-0.3-0.6-0.6-0.6s-0.6,0.3-0.6,0.6
		S-1616.4,1147.2-1616.1,1147.2z"/>
	<path class="st0" d="M-1614.8,1149.7c0.8,0,1.5,0.5,1.8,1.3h7.5l3.6-3.6c0.1-0.1,0.3-0.2,0.4-0.2h6.7l1.5-1.5v-5.2l-4.9-4.9
		c-0.2,0.1-0.5,0.2-0.8,0.2c-1,0-1.9-0.9-1.9-1.9s0.9-1.9,1.9-1.9s1.9,0.9,1.9,1.9c0,0.3-0.1,0.6-0.2,0.8l5.1,5.1
		c0.1,0.1,0.2,0.3,0.2,0.4v5.7c0,0.2-0.1,0.3-0.2,0.4l-1.9,1.9c-0.1,0.1-0.3,0.2-0.4,0.2h-6.7l-3.6,3.6c-0.1,0.1-0.3,0.2-0.4,0.2
		h-7.7c-0.3,0.7-1,1.3-1.8,1.3c-1,0-1.9-0.9-1.9-1.9C-1616.7,1150.6-1615.8,1149.7-1614.8,1149.7z M-1599,1133.3
		c-0.3,0-0.6,0.3-0.6,0.6s0.3,0.6,0.6,0.6s0.6-0.3,0.6-0.6C-1598.3,1133.6-1598.6,1133.3-1599,1133.3z M-1614.8,1152.3
		c0.3,0,0.6-0.3,0.6-0.6s-0.3-0.6-0.6-0.6s-0.6,0.3-0.6,0.6S-1615.1,1152.3-1614.8,1152.3z M-1628.1,1147.2c0.3,0,0.6,0.1,0.8,0.2
		l2.4-2.4v-3.7c-0.7-0.3-1.3-1-1.3-1.8c0-1,0.9-1.9,1.9-1.9s1.9,0.9,1.9,1.9c0,0.8-0.5,1.5-1.3,1.8v3.9c0,0.2-0.1,0.3-0.2,0.4
		l-2.5,2.5c0.1,0.2,0.2,0.5,0.2,0.8c0,0.8-0.5,1.5-1.3,1.8v0.5l4.9,4.9c0.1,0.1,0.2,0.3,0.2,0.4v0.7c0.7,0.3,1.3,1,1.3,1.8
		s-0.5,1.5-1.3,1.8v1.5c0.7,0.3,1.3,1,1.3,1.8c0,1-0.9,1.9-1.9,1.9s-1.9-0.9-1.9-1.9c0-0.8,0.5-1.5,1.3-1.8v-1.5
		c-0.7-0.3-1.3-1-1.3-1.8s0.5-1.5,1.3-1.8v-0.5l-4.9-4.9c-0.1-0.1-0.2-0.3-0.2-0.4v-0.7c-0.7-0.3-1.3-1-1.3-1.8
		S-1629.1,1147.2-1628.1,1147.2L-1628.1,1147.2z M-1624.3,1140.2c0.3,0,0.6-0.3,0.6-0.6s-0.3-0.6-0.6-0.6s-0.6,0.3-0.6,0.6
		S-1624.6,1140.2-1624.3,1140.2z M-1623,1164.9c0.3,0,0.6-0.3,0.6-0.6s-0.3-0.6-0.6-0.6s-0.6,0.3-0.6,0.6
		C-1623.7,1164.6-1623.4,1164.9-1623,1164.9z M-1623,1159.9c0.3,0,0.6-0.3,0.6-0.6s-0.3-0.6-0.6-0.6s-0.6,0.3-0.6,0.6
		S-1623.4,1159.9-1623,1159.9z M-1628.1,1149.7c0.3,0,0.6-0.3,0.6-0.6s-0.3-0.6-0.6-0.6s-0.6,0.3-0.6,0.6
		S-1628.4,1149.7-1628.1,1149.7z"/>
</g>
</svg>
