<svg xmlns="http://www.w3.org/2000/svg" x="0" y="0" viewBox="-1632 1133 35 35" xml:space="preserve"><path d="M-1620.9 1141.6c-.1-.1-.3-.2-.5-.2s-.4.1-.5.2-.2.3-.2.5.1.4.2.5c.1.1.3.2.5.2s.4-.1.5-.2c.1-.1.2-.3.2-.5s-.1-.4-.2-.5z"/><path d="M-1597.2 1135.9l-.8-.8.8-.8c.3-.3.3-.7 0-1-.3-.3-.7-.3-1 0l-.8.8-.8-.8c-.1-.1-.3-.2-.5-.2h-11.6c-.9 0-1.8.4-2.4 1l-5.8 5.8c-.3.3-.3.7 0 1 .3.3.7.3 1 0l5.8-5.8c.4-.4.9-.6 1.5-.6h11.3l.6.6-2.5 2.5c-1.1-.6-2.5-.5-3.4.4-.5.5-.8 1.2-.8 2 0 .7.3 1.5.8 2s1.3.8 2 .8 1.4-.3 2-.8c.9-.9 1.1-2.3.4-3.4l2.5-2.5.6.6v11.3c0 .5-.2 1.1-.6 1.5l-16.7 16.7c-.4.4-.9.6-1.5.6s-1.1-.2-1.5-.6l-11.5-11.5c-.4-.4-.6-.9-.6-1.5s.2-1.1.6-1.5l7.4-7.4c.3-.3.3-.7 0-1s-.7-.3-1 0l-7.4 7.4c-.6.6-1 1.5-1 2.4s.4 1.8 1 2.4l11.5 11.5c.7.7 1.5 1 2.4 1s1.8-.3 2.4-1l16.7-16.7c.6-.6 1-1.5 1-2.4v-11.6c.1-.1 0-.3-.1-.4zm-5.7 5.1c-.3.3-.6.4-1 .4s-.7-.1-1-.4c-.6-.6-.6-1.5 0-2 .3-.3.6-.4 1-.4.1 0 .3 0 .4.1l-.8.8c-.3.3-.3.7 0 1 .1.1.3.2.5.2s.3-.1.5-.2l.8-.8c.1.3-.1.9-.4 1.3z"/><path d="M-1602.8 1146.8l-8-8c-1.1-1.1-2.8-1.1-3.8 0l-12.6 12.6c-.5.5-.8 1.2-.8 1.9s.3 1.4.8 1.9l8 8c.5.5 1.2.8 1.9.8s1.4-.3 1.9-.8l12.6-12.6c.5-.5.8-1.2.8-1.9s-.3-1.4-.8-1.9zm-1 2.8l-12.6 12.6c-.3.3-.6.4-.9.4-.4 0-.7-.1-.9-.4l-8-8c-.3-.3-.4-.6-.4-.9 0-.4.1-.7.4-.9l12.6-12.6c.3-.3.6-.4.9-.4.3 0 .7.1.9.4l8 8c.3.3.4.6.4.9s-.1.7-.4.9z"/><path d="M-1609.7 1146.7c.3-.3.3-.7 0-1-.3-.3-.7-.3-1 0l-.4.4c-1.1-.6-2.4-.6-3.3.3-.5.5-.8 1.2-.7 1.9 0 .7.3 1.4.9 1.9.5.6.6 1.4.1 1.9s-1.3.4-1.9-.1c-.6-.6-.6-1.4-.1-1.9.3-.3.3-.7 0-1s-.7-.3-1 0c-.9.9-.9 2.2-.3 3.3l-.5.5c-.3.3-.3.7 0 1 .1.1.3.2.5.2s.3-.1.5-.2l.5-.5c.5.3 1 .4 1.5.4.7 0 1.3-.2 1.8-.7 1-1 .9-2.7-.1-3.8-.3-.3-.4-.6-.5-1 0-.3.1-.6.3-.9.5-.5 1.3-.4 1.9.1.5.6.6 1.4.1 1.9-.3.3-.3.7 0 1 .1.1.3.2.5.2s.3-.1.5-.2c.9-.9.9-2.2.3-3.3l.4-.4zm-6.9 11.3l-3.5-3.5c-.3-.3-.7-.3-1 0-.3.3-.3.7 0 1l3.5 3.5c.1.1.3.2.5.2s.3-.1.5-.2c.2-.3.2-.7 0-1zm-5.4-5.4c-.1-.1-.3-.2-.5-.2s-.4.1-.5.2c-.1.1-.2.3-.2.5s.1.4.2.5c.1.1.3.2.5.2s.4-.1.5-.2c.1-.1.2-.3.2-.5s-.1-.3-.2-.5z"/></svg>
