<svg xmlns="http://www.w3.org/2000/svg" viewBox="-1640 1142 24 24"><path d="M-1621 1156.9c-.5-.5-1.1-.8-1.7-.8-.6 0-1.2.3-1.7.8l-1.6 1.6c-.1-.1-.3-.1-.4-.2-.2-.1-.4-.2-.5-.3-1.5-1-2.9-2.2-4.2-3.8-.6-.8-1.1-1.5-1.4-2.2l1.2-1.2.4-.4c1.1-1.1 1.1-2.4 0-3.5l-1.4-1.4-.5-.5c-.3-.3-.6-.6-1-.9-.5-.5-1.1-.7-1.7-.7s-1.2.3-1.7.7l-1.7 1.7c-.6.6-1 1.4-1.1 2.4-.1 1.5.3 2.9.6 3.8.8 2.2 2 4.3 3.9 6.5 2.2 2.6 4.9 4.7 7.9 6.2 1.2.6 2.7 1.2 4.5 1.3h.3c1.2 0 2.2-.4 2.9-1.3l.9-.9.7-.7c.5-.5.8-1.1.8-1.8 0-.6-.3-1.2-.8-1.7l-2.7-2.7zm1.8 5.3l-.6.6c-.3.3-.7.6-1 1-.5.5-1.1.8-1.9.8h-.2c-1.5-.1-2.9-.7-4-1.2-2.9-1.4-5.4-3.4-7.5-5.9-1.7-2.1-2.9-4-3.7-6.1-.5-1.3-.6-2.2-.6-3.2.1-.6.3-1.1.7-1.5l1.7-1.7c.2-.2.5-.4.8-.4.3 0 .6.2.7.4l.9.9.5.5 1.4 1.4c.5.5.5 1 0 1.6l-.4.4c-.4.4-.8.8-1.3 1.2-.4.4-.4.9-.3 1.1.4.9.9 1.7 1.6 2.7 1.4 1.7 2.9 3.1 4.5 4.1l.6.3c.2.1.4.2.5.3h.1c.2.1.3.1.5.1.4 0 .7-.3.8-.3l1.7-1.7c.2-.2.4-.4.8-.4.3 0 .6.2.7.4l2.8 2.8c.7.7.7 1.3.2 1.8zm-7.8-14.5c1.3.2 2.5.9 3.5 1.8 1 1 1.6 2.2 1.8 3.5.1.3.3.6.7.6h.1c.4-.1.6-.4.6-.8-.3-1.6-1-3.1-2.2-4.2-1.2-1.2-2.6-1.9-4.2-2.2-.4-.1-.7.2-.8.6s.1.6.5.7zm11 4.9c-.5-2.6-1.7-5.1-3.6-7-1.9-1.9-4.3-3.2-7-3.6-.4-.1-.7.2-.8.6-.1.4.2.7.6.8 2.4.4 4.5 1.5 6.2 3.2 1.7 1.7 2.8 3.9 3.2 6.2.1.3.3.6.7.6h.1c.4-.1.7-.4.6-.8z" fill="#00b2ff"/></svg>