<svg version="1.1" id="Layer_1" xmlns="http://www.w3.org/2000/svg" x="0" y="0" viewBox="-1631 1135 36 31" xml:space="preserve"><style>.st0{fill:#00b2ff}</style><path class="st0" d="M-1613 1144.8c-.4 0-.7.3-.7.7 0 .4.3.7.7.7s.7-.3.7-.7c0-.4-.3-.7-.7-.7z"/><path class="st0" d="M-1597.1 1149h-2.7c-1.4-4.1-3.5-11.4-7.3-13.5-1.9-1-3.7-.3-4.4 1.1-.3.6-.9.9-1.5.9s-1.2-.3-1.5-.9c-.7-1.4-2.4-2.2-4.2-1.3-3.9 1.9-6 9.4-7.5 13.6h-2.7c-1.2 0-2.1 1-2.1 2.1 0 1.2.9 2.1 2.1 2.1h31.8c1.2 0 2.1-1 2.1-2.1 0-1-.9-2-2.1-2zm-26.6-2.8h7.9c.4 0 .7-.3.7-.7 0-.4-.3-.7-.7-.7h-7.4c2.1-5.9 4.1-7.6 5.1-8.1 1.1-.5 2-.1 2.3.6.5 1.1 1.6 1.8 2.7 1.8 1.2 0 2.2-.7 2.7-1.8.3-.7 1.3-1.1 2.4-.5 1 .6 3 2.3 5 8h-7.4c-.4 0-.7.3-.7.7s.3.7.7.7h7.9c.4 1 .7 2.1 1 2.8h-23.3c.4-.7.8-1.8 1.1-2.8zm26.6 5.6h-31.8c-.4 0-.7-.3-.7-.7 0-.4.3-.7.7-.7h31.8c.4 0 .7.3.7.7 0 .4-.3.7-.7.7zm-17.3 4.3h-11.3c-.4 0-.7.3-.7.7v2.8c0 3.5 2.8 6.4 6.3 6.4 2.6 0 5-1.6 5.9-4.1.7-.3 1.5-.3 2.2 0 .9 2.5 3.3 4.1 5.9 4.1 3.5 0 6.3-2.9 6.3-6.4v-2.8c0-.4-.3-.7-.7-.7h-11.3c-.4 0-.7.3-.7.7v.7h-1.4v-.7c.2-.4-.1-.7-.5-.7zm-5.6 8.5c-2.7 0-4.9-2.2-4.9-5v-2.1h9.8v2.1c0 2.8-2.2 5-4.9 5zm9.1-7.1h9.8v2.1c0 2.7-2.2 5-4.9 5s-4.9-2.2-4.9-5v-2.1zm-1.4 1.4v1.4c-.5-.1-1-.1-1.5 0v-1.4h1.5z"/><path class="st0" d="M-1620 1161.8c-1.2 0-2.1-1-2.1-2.1 0-.4-.3-.7-.7-.7s-.7.3-.7.7c0 2 1.6 3.5 3.5 3.5.4 0 .7-.3.7-.7 0-.4-.3-.7-.7-.7zm14 1.4c1.9 0 3.5-1.6 3.5-3.5 0-.4-.3-.7-.7-.7s-.7.3-.7.7c0 1.2-.9 2.1-2.1 2.1-.4 0-.7.3-.7.7 0 .4.3.7.7.7z"/></svg>