<svg version="1.1" id="Layer_1" xmlns="http://www.w3.org/2000/svg" x="0" y="0" viewBox="-1640 1144 26 19.2" xml:space="preserve"><style>.st0{fill:#00b2ff}</style><path class="st0" d="M-1617.2 1144h-19.6c-1.8 0-3.2 1.4-3.2 3.1v13c0 1.7 1.4 3.1 3.2 3.1h19.6c1.8 0 3.2-1.4 3.2-3.1v-13c0-1.7-1.4-3.1-3.2-3.1zm1.8 16.1c0 .9-.8 1.7-1.7 1.7h-19.6c-1 0-1.7-.8-1.7-1.7v-13c0-.9.8-1.7 1.7-1.7h19.6c1 0 1.7.8 1.7 1.7v13z"/><path class="st0" d="M-1623.6 1153.4l6.4-5.5c.3-.3.3-.7.1-1-.3-.3-.7-.3-1-.1l-8.8 7.6-1.7-1.5-.1-.1-7-6c-.3-.3-.8-.2-1 .1-.3.3-.2.7.1 1l6.4 5.6-6.4 5.8c-.3.3-.3.7 0 1 .1.1.3.2.5.2s.4-.1.5-.2l6.5-5.9 1.8 1.5c.1.1.3.2.5.2s.3-.1.5-.2l1.8-1.6 6.5 5.9c.1.1.3.2.5.2s.4-.1.5-.2c.3-.3.3-.7 0-1l-6.6-5.8z"/></svg>